<svg width="97" height="20" viewBox="0 0 97 20" fill="none" xmlns="http://www.w3.org/2000/svg">
<g clip-path="url(#clip0_13_84)">
<path d="M2.90752 4.95182L5.77541 0.00174933L17.3247 0.000244141L20.1771 4.99949L20.1806 15L17.3252 19.9962L5.77942 20.0002L2.87842 15.0005L2.90752 4.95182Z" fill="#4D4D4D"/>
<path d="M2.87893 14.999H8.08388L5.22502 9.96112L7.55004 4.95285L2.90803 4.95184L0 10.0018" fill="#EDEDED"/>
<path d="M9.6624 14.999H13.467L16.8311 10.0956L13.5257 5H9.05029L6.35449 9.92398L9.6624 14.999Z" fill="#E0E0E0"/>
<path d="M0 10.0012L2.87893 15.0005H8.08439L5.25663 10.0183L0 10.0012Z" fill="#ACACAC"/>
<path d="M6.40918 10.0023L9.6629 15.0005H13.467L16.7784 10.0043L6.40918 10.0023Z" fill="#9E9E9E"/>
<path d="M7.69757 10.0048L6.71569 10.2908L5.77344 10.0043L9.62021 3.3363L10.5825 5.00105" fill="#00B8E3"/>
<path d="M10.5786 14.999L9.62126 16.6708L7.06595 13.9178L5.77148 10.0058V10.0038H7.69713" fill="#33C6E9"/>
<path d="M5.77389 10.0043H5.77189V10.0058L4.81007 11.6725L3.84424 10.0133L4.82362 8.31445L7.69753 3.33728H9.62116" fill="#008AAA"/>
<path d="M16.3584 14.999H22.1845L22.181 4.99951H16.3584V14.999Z" fill="#D4D4D4"/>
<path d="M16.3584 10.0178V15H22.174V10.0178H16.3584Z" fill="#919191"/>
<path d="M9.62216 16.6728H7.69702L4.81006 11.672L5.77188 10.0063L9.62216 16.6728Z" fill="#00B8E3"/>
<path d="M17.3193 10.0043L13.4715 16.6713C13.1178 16.1515 12.5117 15.0005 12.5117 15.0005L15.3982 10.0033L17.3193 10.0043Z" fill="#008AAA"/>
<path d="M15.3932 16.6713L13.4715 16.6708L17.3198 10.0038L18.2811 8.33902L19.2455 10.0148M17.3193 10.0043H15.3987L12.5112 5.0005L13.467 3.33777L15.8041 6.30902L17.3193 10.0043Z" fill="#00B8E3"/>
<path d="M18.2811 8.338V8.33951L17.3193 10.0042L13.4675 3.33826L15.3947 3.33926L18.2811 8.338Z" fill="#33C6E9"/>
<path d="M88.2907 5.00757C88.2778 5.00744 88.265 5.00989 88.253 5.01479C88.241 5.01969 88.2302 5.02694 88.2211 5.03611C88.2119 5.04527 88.2047 5.05617 88.1999 5.06816C88.1951 5.08015 88.1927 5.09299 88.1929 5.10591V14.8912C88.1929 14.9443 88.236 14.989 88.2907 14.989H90.3222C90.3754 14.989 90.4201 14.9438 90.4201 14.8912V12.1974C90.4201 12.1743 90.4281 12.1507 90.4452 12.1321L90.536 12.0298L91.3387 11.1357C91.3485 11.125 91.3606 11.1166 91.374 11.1112C91.3874 11.1057 91.4019 11.1032 91.4164 11.104C91.4309 11.1048 91.445 11.1087 91.4578 11.1156C91.4705 11.1225 91.4816 11.1321 91.4903 11.1437L92.2569 12.1773L93.6291 14.0237L94.1319 14.6995L94.316 14.9489C94.3361 14.974 94.3642 14.989 94.3958 14.989H96.7539C96.772 14.9887 96.7896 14.9835 96.805 14.974C96.8203 14.9644 96.8328 14.9509 96.8411 14.9349C96.8495 14.9189 96.8533 14.9009 96.8523 14.8829C96.8512 14.8648 96.8453 14.8474 96.8352 14.8325L96.347 14.1521L95.6501 13.1717C95.4429 12.8827 95.2206 12.5707 94.9813 12.2355L94.8734 12.083L93.9904 10.8387C93.6674 10.3858 93.344 9.93322 93.02 9.481C93.0071 9.46304 93.0009 9.44116 93.0024 9.41911C93.0038 9.39705 93.0129 9.37619 93.0281 9.36009L93.8062 8.4951L95.6752 6.41794L96.7986 5.17013C96.8131 5.15267 96.8219 5.1311 96.8237 5.10842C96.8241 5.09528 96.8218 5.08219 96.817 5.06994C96.8123 5.05769 96.8051 5.04652 96.7959 5.0371C96.7867 5.02769 96.7758 5.02022 96.7636 5.01515C96.7515 5.01008 96.7385 5.0075 96.7253 5.00757H94.2317C94.2183 5.00755 94.2049 5.0103 94.1926 5.01565C94.1803 5.021 94.1691 5.02884 94.16 5.03868L93.3783 5.88861L91.7105 7.70187L90.5891 8.92007C90.5759 8.93474 90.5585 8.94503 90.5393 8.94958C90.5201 8.95412 90.4999 8.95271 90.4815 8.94552C90.4631 8.93833 90.4473 8.92571 90.4362 8.90933C90.4252 8.89296 90.4194 8.8736 90.4196 8.85384V5.10541C90.4196 5.07946 90.4093 5.05458 90.3909 5.03623C90.3726 5.01788 90.3477 5.00757 90.3217 5.00757H88.2907Z" fill="#626262"/>
<path d="M81.0606 5.00757C81.0415 5.00795 81.0229 5.01384 81.007 5.02452C80.9912 5.0352 80.9788 5.05022 80.9712 5.06778L78.3557 11.1212L78.3542 11.1227L78.3507 11.1292L78.3492 11.1342L78.011 11.9194L77.991 11.9676L77.9473 12.0654H77.9478L77.9112 12.1487V12.1502L76.8942 14.5048L76.7447 14.851C76.7381 14.8659 76.7353 14.8823 76.7366 14.8985C76.7379 14.9147 76.7433 14.9304 76.7521 14.9441C76.761 14.9578 76.7731 14.969 76.7874 14.9769C76.8017 14.9847 76.8177 14.9889 76.834 14.989H78.9914C79.0099 14.9888 79.0279 14.9834 79.0434 14.9735C79.0589 14.9636 79.0713 14.9495 79.0792 14.9328C79.0792 14.9308 79.0812 14.9308 79.0812 14.9293L79.8328 13.1808L79.9573 12.8918C79.965 12.8739 79.9777 12.8587 79.9939 12.848C80.0102 12.8373 80.0291 12.8316 80.0486 12.8316H84.1025C84.1218 12.8314 84.1406 12.8371 84.1565 12.8478C84.1725 12.8586 84.1848 12.8739 84.1919 12.8918L85.0267 14.8315L85.9625 11.511L85.2104 9.77L84.5386 8.21563L83.1779 5.06828C83.1707 5.05037 83.1583 5.03504 83.1423 5.0243C83.1262 5.01356 83.1073 5.0079 83.088 5.00807H81.8207L81.0606 5.00757ZM85.0267 14.8315V14.833L85.0699 14.9293C85.0849 14.9659 85.1196 14.9895 85.1592 14.9895H87.3166C87.333 14.9894 87.3491 14.9852 87.3634 14.9773C87.3778 14.9695 87.3899 14.9582 87.3988 14.9444C87.4077 14.9307 87.4131 14.915 87.4144 14.8987C87.4157 14.8824 87.413 14.866 87.4064 14.851L87.3864 14.8059L85.9625 11.511L85.0267 14.8315ZM82.0816 8.12733C82.1187 8.12733 82.1553 8.1474 82.1724 8.18603L82.6455 9.28984L83.1232 10.4062L83.2662 10.7393C83.2727 10.7542 83.2754 10.7705 83.274 10.7867C83.2727 10.8028 83.2673 10.8184 83.2584 10.832C83.2494 10.8455 83.2372 10.8567 83.2229 10.8643C83.2086 10.872 83.1926 10.8759 83.1764 10.8758H80.9743C80.9581 10.8758 80.9421 10.8718 80.9279 10.8641C80.9136 10.8565 80.9015 10.8453 80.8926 10.8318C80.8838 10.8182 80.8784 10.8027 80.8771 10.7865C80.8757 10.7704 80.8784 10.7542 80.885 10.7393L81.1438 10.1423L81.9918 8.18553C81.9995 8.16808 82.0122 8.15326 82.0282 8.14292C82.0443 8.13258 82.063 8.12716 82.0821 8.12733H82.0816Z" fill="#6F6F6F"/>
<path d="M71.9744 4.77875C71.56 4.77875 71.1631 4.81688 70.7863 4.89665H70.7848C70.1465 5.02468 69.54 5.27847 69.0007 5.64323C68.7321 5.8246 68.4807 6.03016 68.2496 6.25735C67.504 6.98636 67.0314 7.86138 66.8372 8.8543L66.8362 8.85581L66.8292 8.89394L66.8267 8.90548L66.8056 9.01837L66.8041 9.02389V9.0269L66.7991 9.06955V9.07406C66.7562 9.35886 66.735 9.64652 66.7359 9.93453C66.7359 11.2541 67.1453 12.379 67.9651 13.3097C68.0529 13.413 68.1492 13.5124 68.2486 13.6102C68.5025 13.8591 68.7719 14.0768 69.0554 14.2625C69.8983 14.8134 70.8711 15.0888 71.9744 15.0888C72.0974 15.0888 72.2183 15.0858 72.3377 15.0773C73.4064 15.0171 74.3451 14.6839 75.1549 14.0783C75.3475 13.935 75.5301 13.7786 75.7013 13.6102L75.7063 13.6052C76.0957 13.2282 76.4214 12.7905 76.6706 12.3092C76.7449 12.1647 76.8111 12.0172 76.8693 11.8642C77.1001 11.2752 77.2145 10.6314 77.2145 9.93503C77.2145 9.74739 77.2065 9.56275 77.1894 9.38313V9.38012C77.1441 8.84371 77.0114 8.31833 76.7966 7.82475C76.5457 7.24776 76.1809 6.72546 75.7013 6.25735C75.5021 6.06167 75.2929 5.88607 75.0741 5.72953C74.1911 5.09584 73.159 4.77875 71.9744 4.77875ZM71.983 6.72195C72.8158 6.72195 73.5178 7.03553 74.0887 7.6627C74.1198 7.69631 74.1499 7.73093 74.1765 7.76555C74.6893 8.37465 74.9447 9.10015 74.9447 9.94105C74.9447 10.5281 74.8203 11.0564 74.5714 11.5275C74.4207 11.8129 74.2283 12.0742 74.0004 12.3027C73.7977 12.5126 73.5638 12.6899 73.307 12.8285C72.9107 13.0407 72.4691 13.1471 71.9825 13.1471C71.5368 13.152 71.0964 13.0501 70.698 12.8501C70.4954 12.7452 70.3066 12.6154 70.1361 12.4638C70.0445 12.3852 69.9581 12.3009 69.8772 12.2114C69.3052 11.5877 69.0192 10.8311 69.0192 9.94156C69.0192 9.91496 69.0192 9.88988 69.0207 9.86329C69.0358 9.00683 69.3213 8.2738 69.8772 7.6627C70.2936 7.20512 70.7813 6.91261 71.3387 6.78968C71.5504 6.74412 71.7664 6.72141 71.983 6.72195Z" fill="#7D7D7D"/>
<path d="M60.3342 5.00757C60.3212 5.00744 60.3084 5.00989 60.2965 5.01479C60.2845 5.01969 60.2736 5.02694 60.2645 5.03611C60.2554 5.04527 60.2482 5.05617 60.2434 5.06816C60.2385 5.08015 60.2361 5.09299 60.2363 5.10591V14.8912C60.2363 14.9443 60.2795 14.989 60.3342 14.989H66.6199C66.675 14.989 66.7182 14.9438 66.7182 14.8912V13.1C66.7181 13.0871 66.7155 13.0744 66.7106 13.0626C66.7056 13.0507 66.6983 13.04 66.6892 13.031C66.6801 13.0219 66.6692 13.0148 66.6573 13.0099C66.6454 13.0051 66.6327 13.0026 66.6199 13.0027H62.5609C62.5482 13.0028 62.5356 13.0004 62.5238 12.9957C62.512 12.9909 62.5013 12.9839 62.4923 12.975C62.4832 12.9661 62.476 12.9555 62.4711 12.9438C62.4662 12.9321 62.4636 12.9195 62.4635 12.9068V5.10591C62.4637 5.08726 62.4585 5.06895 62.4484 5.05326C62.4383 5.03756 62.4239 5.02517 62.4068 5.01761C62.394 5.01086 62.3797 5.00741 62.3652 5.00757H61.2403H60.3342Z" fill="#888888"/>
<path d="M55.086 4.77925C53.6195 4.77925 52.3797 5.27546 51.3657 6.26437C51.1816 6.44499 51.0145 6.63465 50.863 6.83133V6.83333C50.1846 7.71437 49.8459 8.75998 49.8459 9.96915C49.8459 10.66 49.9538 11.2937 50.1716 11.8727L50.1746 11.8717L50.1721 11.8732C50.2995 12.2219 50.4691 12.5435 50.6733 12.8506V12.8521C50.6748 12.8521 50.6748 12.8536 50.6748 12.8536C50.8677 13.1404 51.0902 13.4061 51.3386 13.6463C51.6375 13.9397 51.9719 14.1946 52.334 14.405H52.3355C52.4904 14.4945 52.65 14.5756 52.8137 14.6478H52.8172L52.8187 14.6493H52.8202C53.5076 14.9513 54.2787 15.1024 55.1367 15.1024C55.3891 15.1024 55.6364 15.0838 55.8767 15.0492H55.8818C56.0363 15.0276 56.1888 14.998 56.3398 14.9614C57.1843 14.7587 57.9579 14.3307 58.6629 13.6784C58.8038 13.549 58.9438 13.4075 59.0798 13.2585C59.0964 13.2396 59.1052 13.2152 59.1045 13.1901C59.1039 13.165 59.0938 13.141 59.0763 13.123L57.7888 11.797C57.778 11.7854 57.7644 11.7767 57.7493 11.7717C57.7343 11.7667 57.7182 11.7656 57.7025 11.7684C57.6798 11.7734 57.6594 11.7857 57.6443 11.8035C57.3007 12.2099 56.9093 12.5154 56.4713 12.7176C56.0363 12.9183 55.5551 13.0187 55.0293 13.0187C54.6691 13.0187 54.3319 12.962 54.0203 12.8476C53.6311 12.702 53.2788 12.4724 52.9883 12.1753C52.6951 11.8837 52.472 11.5292 52.336 11.1387H52.3325L52.336 11.1382C52.2081 10.7794 52.1454 10.3816 52.1454 9.94156C52.1454 9.07707 52.4023 8.37716 52.92 7.84282C52.9582 7.80468 52.9963 7.76605 53.038 7.72742C53.632 7.18053 54.3485 6.90659 55.1869 6.90659C55.4934 6.90659 55.7874 6.94472 56.0649 7.02148V7.02098C56.7021 7.19358 57.261 7.56536 57.7422 8.13282C57.7803 8.17797 57.8501 8.18098 57.8877 8.13633L59.141 6.71543C59.1568 6.69689 59.1653 6.67326 59.1651 6.64892C59.1648 6.62457 59.1557 6.60115 59.1395 6.58297C58.1586 5.50576 56.9705 4.9102 55.5772 4.79882C55.4157 4.78627 55.2531 4.77875 55.087 4.77875L55.086 4.77925Z" fill="#949494"/>
<path d="M41.437 5.00757C41.42 5.00759 41.4033 5.01207 41.3885 5.02055C41.3737 5.02903 41.3614 5.04123 41.3528 5.05593C41.3442 5.07063 41.3395 5.08732 41.3394 5.10436C41.3392 5.1214 41.3435 5.13819 41.3518 5.15307L42.301 6.8133L44.0185 9.81515L44.7108 11.0243C44.7193 11.0392 44.7237 11.0559 44.7239 11.073V14.8912C44.7239 14.9443 44.767 14.989 44.8217 14.989H46.8532C46.9079 14.989 46.9506 14.9438 46.9506 14.8912V11.073C46.9506 11.0564 46.9556 11.0399 46.9641 11.0248L47.4538 10.1689L49.3122 6.91966L49.692 6.25738L49.9444 5.81586H49.9409L49.9444 5.81435L50.3227 5.15407C50.3311 5.13929 50.3355 5.12256 50.3354 5.10555C50.3354 5.08853 50.3309 5.07184 50.3223 5.05712C50.3138 5.0424 50.3016 5.03017 50.2868 5.02165C50.2721 5.01313 50.2554 5.00862 50.2384 5.00857H48.0494C48.0324 5.00857 48.0157 5.01296 48.0009 5.02131C47.9862 5.02966 47.9738 5.04169 47.9651 5.05624L45.9817 8.46951L45.9802 8.47101V8.47252L45.8738 8.55079L45.7941 8.612C45.7771 8.60339 45.7628 8.59018 45.7529 8.57387L45.7193 8.51768L45.6696 8.43238L43.7104 5.05573C43.7016 5.04112 43.6892 5.02904 43.6743 5.02068C43.6594 5.01233 43.6426 5.00798 43.6256 5.00807L41.437 5.00757ZM49.2324 6.0311V6.0321L49.2304 6.03311L49.2324 6.0311Z" fill="#AAAAAA"/>
<path d="M33.4143 5.00758C33.4013 5.00738 33.3884 5.00978 33.3764 5.01465C33.3644 5.01952 33.3535 5.02676 33.3443 5.03593C33.3351 5.0451 33.3279 5.05602 33.323 5.06805C33.3181 5.08007 33.3157 5.09295 33.3159 5.10592V14.8912C33.3159 14.9444 33.3591 14.989 33.4138 14.989H40.5705C40.6256 14.989 40.6688 14.9439 40.6688 14.8912V13.115C40.6685 13.0891 40.6581 13.0644 40.6396 13.0462C40.6212 13.0279 40.5964 13.0177 40.5705 13.0177H35.641C35.6281 13.0178 35.6153 13.0153 35.6034 13.0104C35.5914 13.0055 35.5806 12.9983 35.5714 12.9892C35.5623 12.9801 35.5551 12.9693 35.5501 12.9574C35.5452 12.9455 35.5426 12.9328 35.5426 12.9199V11.0449C35.5426 10.9917 35.5878 10.9466 35.641 10.9466H39.9152C39.9411 10.9466 39.9659 10.9363 39.9842 10.9181C40.0025 10.8998 40.0129 10.8751 40.013 10.8492V9.14636C40.013 9.09117 39.9679 9.04852 39.9152 9.04852H35.6404C35.6145 9.04839 35.5897 9.03804 35.5714 9.01972C35.5531 9.0014 35.5427 8.97659 35.5426 8.95068V7.08976C35.5426 7.03457 35.5878 6.99193 35.641 6.99193H40.4149C40.4409 6.99193 40.4658 6.98162 40.4841 6.96327C40.5024 6.94492 40.5128 6.92004 40.5128 6.89409V5.10542C40.5128 5.07947 40.5024 5.05458 40.4841 5.03624C40.4658 5.01789 40.4409 5.00758 40.4149 5.00758H36.4869H33.4143Z" fill="#BCBCBC"/>
<path d="M23.7099 5.00754C23.697 5.0074 23.6842 5.00986 23.6722 5.01476C23.6602 5.01966 23.6494 5.02691 23.6402 5.03607C23.6311 5.04524 23.6239 5.05614 23.6191 5.06812C23.6143 5.08011 23.6119 5.09295 23.6121 5.10588V14.8911C23.6121 14.9443 23.6552 14.989 23.7099 14.989H25.7409C25.7961 14.989 25.8393 14.9438 25.8393 14.8911V12.1973C25.8393 12.1743 25.8473 12.1507 25.8643 12.1321L26.2868 11.6595L26.7584 11.1357C26.7682 11.1252 26.7802 11.1169 26.7935 11.1116C26.8069 11.1062 26.8212 11.1038 26.8356 11.1046C26.8499 11.1053 26.8639 11.1092 26.8766 11.116C26.8893 11.1228 26.9003 11.1322 26.9089 11.1437L28.3178 13.0387L28.3188 13.0397L29.3303 14.4009L29.7367 14.9478C29.7456 14.9603 29.7573 14.9705 29.7709 14.9775C29.7845 14.9844 29.7997 14.9881 29.815 14.988H32.1746C32.1925 14.9877 32.2101 14.9825 32.2253 14.973C32.2405 14.9635 32.2528 14.95 32.261 14.934C32.2691 14.918 32.2728 14.9001 32.2715 14.8822C32.2703 14.8643 32.2642 14.8471 32.2539 14.8324L32.1681 14.7115C31.8584 14.2796 31.5496 13.8469 31.2419 13.4135C30.9579 13.0172 30.6428 12.5741 30.2946 12.0829L30.2595 12.0328C29.6544 11.181 29.0477 10.3304 28.4392 9.48097C28.4268 9.46279 28.421 9.44097 28.4225 9.41903C28.4241 9.39709 28.4329 9.37632 28.4478 9.36005L29.3368 8.37265V8.37064L30.0688 7.55784L30.7723 6.77614L32.2173 5.1696C32.2299 5.15559 32.2382 5.13821 32.2411 5.11957C32.2441 5.10093 32.2416 5.08184 32.2339 5.06461C32.2261 5.04739 32.2136 5.03277 32.1977 5.02255C32.1819 5.01233 32.1634 5.00694 32.1445 5.00704H29.6524C29.6387 5.0069 29.625 5.00964 29.6124 5.01508C29.5998 5.02052 29.5885 5.02855 29.5792 5.03865L28.0343 6.71694L26.0083 8.91953C25.9951 8.9342 25.9777 8.94449 25.9585 8.94904C25.9392 8.95359 25.9191 8.95217 25.9007 8.94498C25.8823 8.93779 25.8665 8.92517 25.8554 8.9088C25.8444 8.89242 25.8385 8.87307 25.8388 8.85331V5.10287C25.8387 5.09011 25.8361 5.07749 25.8311 5.06573C25.8262 5.05398 25.819 5.04332 25.8099 5.03436C25.8008 5.02541 25.79 5.01835 25.7782 5.01357C25.7663 5.00879 25.7537 5.0064 25.7409 5.00654H24.6823L23.7099 5.00754Z" fill="#B8B8B8"/>
<path d="M44.7655 14.9549C44.7534 14.9423 44.7429 14.0568 44.7429 12.9881V11.0434L43.047 8.08115C42.0456 6.33162 41.3592 5.09836 41.3702 5.06926C41.3863 5.02712 41.5494 5.02009 42.5132 5.02009C43.5427 5.02009 43.6421 5.02511 43.6882 5.07779C43.7158 5.1099 44.1829 5.90515 44.7263 6.84539C45.2692 7.78513 45.7313 8.57285 45.7524 8.59543C45.8497 8.70079 45.9832 8.50461 46.9967 6.75809L48.0051 5.01959H49.1466C50.0968 5.01959 50.2905 5.02762 50.3056 5.06675C50.3156 5.09184 49.5645 6.43999 48.6368 8.06158L46.95 11.0098L46.9169 14.9594L45.8527 14.9684C45.2672 14.9734 44.778 14.9674 44.7655 14.9549Z" fill="#A0A0A0"/>
<path d="M33.3431 14.9353C33.3346 14.9127 33.3316 12.676 33.3361 9.96561L33.3446 5.03711H40.4792V6.96225L38.0433 6.97078C36.3108 6.9768 35.5949 6.98985 35.5628 7.01594C35.4975 7.07062 35.4975 8.9777 35.5628 9.03189C35.5944 9.05798 36.2461 9.07153 37.7945 9.07704L39.982 9.08608V10.9114L37.7945 10.9199C36.2461 10.9259 35.5944 10.9395 35.5628 10.9651C35.5276 10.9952 35.5181 11.1984 35.5181 11.9585C35.5181 12.4838 35.5271 12.9369 35.5382 12.9665C35.5562 13.0136 35.8081 13.0186 38.0463 13.0186C39.697 13.0186 40.555 13.0302 40.5981 13.0533C40.6593 13.0859 40.6623 13.1315 40.6623 13.9925C40.6623 14.6518 40.6513 14.9082 40.6222 14.9373C40.563 14.9965 33.3657 14.9945 33.3431 14.9353Z" fill="#ACACAC"/>
</g>
<defs>
<clipPath id="clip0_13_84">
<rect width="96.8521" height="20" fill="white"/>
</clipPath>
</defs>
</svg>
